<svg width="24" height="24" viewBox="0 0 24 24" fill="none" xmlns="http://www.w3.org/2000/svg">
<path d="M13.73 4C13.5542 3.69692 13.3018 3.44535 12.9982 3.27047C12.6946 3.09559 12.3504 3.00354 12 3.00354C11.6496 3.00354 11.3054 3.09559 11.0018 3.27047C10.6982 3.44535 10.4458 3.69692 10.27 4L2.26999 18C2.09454 18.3039 2.00213 18.6486 2.00204 18.9995C2.00195 19.3504 2.09419 19.6951 2.26948 19.9991C2.44478 20.3031 2.69696 20.5556 3.00071 20.7313C3.30447 20.907 3.6491 20.9996 3.99999 21H20C20.3509 20.9996 20.6955 20.907 20.9993 20.7313C21.303 20.5556 21.5552 20.3031 21.7305 19.9991C21.9058 19.6951 21.998 19.3504 21.9979 18.9995C21.9979 18.6486 21.9054 18.3039 21.73 18L13.73 4Z" stroke="black" stroke-width="2" stroke-linecap="round" stroke-linejoin="round"/>
</svg>
