<svg width="24" height="24" viewBox="0 0 24 24" fill="none" xmlns="http://www.w3.org/2000/svg">
<path d="M13 15H16C16.55 15 17.0208 14.8042 17.4125 14.4125C17.8042 14.0208 18 13.55 18 13V11C18 10.45 17.8042 9.97917 17.4125 9.5875C17.0208 9.19583 16.55 9 16 9H13V15ZM14.5 13.5V10.5H16C16.1333 10.5 16.25 10.55 16.35 10.65C16.45 10.75 16.5 10.8667 16.5 11V13C16.5 13.1333 16.45 13.25 16.35 13.35C16.25 13.45 16.1333 13.5 16 13.5H14.5ZM6.5 15H10C10.2833 15 10.5208 14.9042 10.7125 14.7125C10.9042 14.5208 11 14.2833 11 14V13C11 12.7167 10.9042 12.4792 10.7125 12.2875C10.5208 12.0958 10.2833 12 10 12C10.2833 12 10.5208 11.9042 10.7125 11.7125C10.9042 11.5208 11 11.2833 11 11V10C11 9.71667 10.9042 9.47917 10.7125 9.2875C10.5208 9.09583 10.2833 9 10 9H6.5V10.5H9.5V11.25H7.5V12.75H9.5V13.5H6.5V15ZM4 20C3.45 20 2.97917 19.8042 2.5875 19.4125C2.19583 19.0208 2 18.55 2 18V6C2 5.45 2.19583 4.97917 2.5875 4.5875C2.97917 4.19583 3.45 4 4 4H20C20.55 4 21.0208 4.19583 21.4125 4.5875C21.8042 4.97917 22 5.45 22 6V18C22 18.55 21.8042 19.0208 21.4125 19.4125C21.0208 19.8042 20.55 20 20 20H4ZM4 18H20V6H4V18Z" fill="black"/>
</svg>
