<svg width="24" height="24" viewBox="0 0 24 24" fill="none" xmlns="http://www.w3.org/2000/svg">
<path d="M4.83333 20.5185L6.5 22H9.83333L11.5 21.2593V19.037L10.6667 17.5556V15.3333L9.83333 13.8519L10.6667 13.1111V11.6296L11.5 10.8889L12.3333 9.40741L15.6667 10.8889H17.3333L18.1667 9.40741V7.18518L19 6.44444L18.1667 5.7037H15.6667H14L12.3333 6.44444V4.96296L13.1667 2L11.5 2.74074L9.83333 4.22222L9 3.48148H7.33333L5.66667 2.74074L4 3.48148V4.96296L5.66667 6.44444V7.92593L4.83333 8.66667L5.66667 10.1481L4.83333 10.8889V12.3704V13.8519L5.66667 14.5926L4.83333 16.0741L5.66667 16.8148V18.2963L4.83333 19.037V20.5185Z" stroke="black" stroke-width="2" stroke-linejoin="round"/>
</svg>
