<svg width="24" height="24" viewBox="0 0 24 24" fill="none" xmlns="http://www.w3.org/2000/svg">
<path d="M7.72727 11.1935H10.2727M9 16.7097V21M9 21H14C15.1046 21 16 20.1046 16 19V10.5505C16 10.0319 15.7985 9.53347 15.438 9.16054L10.438 3.98773C9.65185 3.17438 8.34815 3.17438 7.56197 3.98773L2.56197 9.16054C2.2015 9.53348 2 10.0319 2 10.5505V19C2 20.1046 2.89543 21 4 21H9Z" stroke="black" stroke-width="2" stroke-linecap="round" stroke-linejoin="round"/>
<path d="M13 2L18.9142 7.91421C19.2893 8.28929 19.5 8.79799 19.5 9.32843V20" stroke="black" stroke-width="2" stroke-linecap="round" stroke-linejoin="round"/>
<path d="M18 3L21.9142 6.91421C22.2893 7.28929 22.5 7.79799 22.5 8.32843V19" stroke="black" stroke-width="2" stroke-linecap="round" stroke-linejoin="round"/>
</svg>
